<svg xmlns="http://www.w3.org/2000/svg" xmlns:xlink="http://www.w3.org/1999/xlink" width="490.896" height="77.983" viewBox="0 0 1473.307 233.874" xmlns:v="https://vecta.io/nano"><style><![CDATA[.B{stroke-linecap:butt}.C{stroke-width:2.392}.D{stroke-linejoin:bevel}.E{fill:#000}.F{stroke:none}]]></style><g fill="none" fill-rule="evenodd" stroke="#000"><path d="M0 166.787h1473.307M0 141.275h1473.307M0 115.764h1473.307M0 90.252h1473.307M0 64.74h1473.307M117.195 192.3h74.144m-74.144 25.5h74.144" class="B C D"/><use xlink:href="#B" class="E F"/><path d="M258.307 192.3h74.144" class="B C D"/><use xlink:href="#B" x="141.112" y="-12.755" class="E F"/><path d="M405.797 192.3h74.144" class="B C D"/><g class="E F"><use xlink:href="#B" x="288.602" y="-25.512"/><use xlink:href="#B" x="429.714" y="-38.268"/><use xlink:href="#B" x="720.707" y="-165.827"/></g><path d="M978.22 39.228h74.144" class="B C D"/><use xlink:href="#B" x="861.023" y="-178.583" class="E F"/><path d="M1126.506 39.228h74.144" class="B C D"/><use xlink:href="#B" x="1009.311" y="-191.339" class="E F"/><path d="M1273.996 39.228h74.144m-74.144-25.512h74.144" class="B C D"/><path d="M1289.144 13.92c0 9.797 12.756 12.552 21.838 12.552h.5c8.572-.102 21.124-2.857 21.124-12.756 0-8.572-12.858-12.654-21.532-12.654-9.082 0-21.94 4.082-21.94 12.858zM1302.4 5.86c1.53-1.53 4.184-2.347 6.837-2.347 2.143 0 4.286.5 6.02 1.735 3.266 2.347 5.817 8.368 5.817 12.756 0 1.123-.102 2.143-.5 2.96-1.123 2.245-5.204 3.878-8.98 3.878-1.633 0-3.266-.306-4.5-1.02-3.674-2.04-6.837-7.347-6.837-12.144 0-2.143.612-4.184 2.143-5.817z" class="E F"/></g><defs ><path id="B" d="M132.343 218.015c0 9.797 12.756 12.552 21.838 12.552h.5c8.572-.102 21.124-2.857 21.124-12.756 0-8.572-12.858-12.654-21.532-12.654-9.082 0-21.94 4.082-21.94 12.858zm13.266-8.062c1.53-1.53 4.184-2.347 6.837-2.347 2.143 0 4.286.5 6.02 1.735 3.266 2.347 5.817 8.368 5.817 12.756 0 1.123-.102 2.143-.5 2.96-1.123 2.245-5.204 3.878-8.98 3.878-1.633 0-3.266-.306-4.5-1.02-3.674-2.04-6.837-7.347-6.837-12.144 0-2.143.612-4.184 2.143-5.817z"/></defs></svg>