<svg xmlns="http://www.w3.org/2000/svg" width="243.859" height="61.274" viewBox="0 0 731.878 183.77" fill="none" fill-rule="evenodd" stroke="#000" xmlns:v="https://vecta.io/nano"><path d="M65.35 141.36h599.53M65.35 115.847h599.53M65.35 90.336h599.53M65.35 64.824h599.53M65.35 39.312h599.53" stroke-linecap="butt" stroke-width="2.392" stroke-linejoin="bevel"/><path d="M12.818 180.426h-3.1V160.55q0-2.48.153-4.692-.4.4-.897.84-.496.44-4.54 3.72l-1.68-2.175 7.382-5.703h2.67v27.887zm6.6-37.47H1.087v-2.728l7.344-7.382q3.357-3.395 4.425-4.845 1.068-1.45 1.602-2.823.534-1.373.534-2.957 0-2.232-1.354-3.53-1.354-1.316-3.758-1.316-1.736 0-3.3.572-1.545.572-3.453 2.08l-1.68-2.155q3.853-3.205 8.393-3.205 3.93 0 6.16 2.022 2.232 2.003 2.232 5.398 0 2.65-1.488 5.246-1.488 2.594-5.57 6.562l-6.104 5.97v.153h14.344v2.938zM18.37 84.16q0 2.67-1.507 4.368-1.488 1.698-4.235 2.27v.153q3.357.42 4.978 2.136 1.62 1.717 1.62 4.502 0 3.987-2.766 6.142-2.766 2.136-7.86 2.136-2.213 0-4.063-.343-1.83-.324-3.567-1.164v-3.014q1.812.897 3.853 1.373 2.06.458 3.9.458 7.23 0 7.23-5.665 0-5.074-7.973-5.074H5.227V89.7h2.785q3.262 0 5.17-1.43 1.907-1.45 1.907-4.006 0-2.04-1.412-3.205-1.392-1.164-3.796-1.164-1.83 0-3.453.496-1.62.496-3.7 1.83l-1.602-2.136q1.717-1.354 3.948-2.117 2.25-.782 4.73-.782 4.063 0 6.314 1.87 2.25 1.85 2.25 5.093zm2.364-23.352h-4.14v6.4H13.56v-6.4H0v-2.766l13.238-18.865h3.357v18.75h4.14v2.88zm-7.172-2.88v-9.27q0-2.728.2-6.16H13.6q-.916 1.83-1.717 3.033l-8.717 12.4h10.396zM9.805 11.916q4.406 0 6.924 2.194 2.537 2.175 2.537 5.97 0 4.33-2.766 6.8-2.747 2.46-7.592 2.46-4.7 0-7.2-1.507V24.77q1.335.858 3.32 1.354 1.984.477 3.9.477 3.357 0 5.207-1.583 1.87-1.583 1.87-4.578 0-5.837-7.153-5.837-1.812 0-4.845.553l-1.64-1.05L3.427 1.06H17.3v2.92H6.142l-.706 8.374q2.194-.44 4.368-.44zm722.073 29.758h-4.14v6.4h-3.033v-6.4h-13.562v-2.766l13.238-18.865h3.357v18.75h4.14v2.88zm-7.172-2.88v-9.27q0-2.728.2-6.16h-.153q-.916 1.83-1.717 3.033l-8.717 12.4h10.396zm4.807 26.232q0 2.67-1.507 4.368-1.488 1.698-4.235 2.27v.153q3.357.42 4.978 2.136 1.62 1.717 1.62 4.502 0 3.987-2.766 6.142-2.766 2.136-7.86 2.136-2.213 0-4.063-.343-1.83-.324-3.567-1.164v-3.014q1.812.897 3.853 1.373 2.06.458 3.9.458 7.23 0 7.23-5.665 0-5.074-7.973-5.074h-2.747v-2.728h2.785q3.262 0 5.17-1.43 1.907-1.45 1.907-4.006 0-2.04-1.412-3.205-1.392-1.164-3.796-1.164-1.83 0-3.453.496-1.62.496-3.7 1.83l-1.602-2.136q1.717-1.354 3.948-2.117 2.25-.782 4.73-.782 4.063 0 6.314 1.87 2.25 1.85 2.25 5.093zm1.05 58.794h-18.33v-2.728l7.344-7.382q3.357-3.395 4.425-4.845 1.068-1.45 1.602-2.823.534-1.373.534-2.957 0-2.232-1.354-3.53-1.354-1.316-3.758-1.316-1.736 0-3.3.572-1.545.572-3.453 2.08l-1.68-2.155q3.853-3.205 8.393-3.205 3.93 0 6.16 2.022 2.232 2.003 2.232 5.398 0 2.65-1.488 5.246-1.488 2.594-5.57 6.562l-6.104 5.97v.153h14.344v2.938zm-6.6 37.472h-3.1v-19.876q0-2.48.153-4.692-.4.4-.897.84-.496.44-4.54 3.72l-1.68-2.175 7.382-5.703h2.67v27.887z" fill="#000" stroke="none"/></svg>