<svg xmlns="http://www.w3.org/2000/svg" xmlns:xlink="http://www.w3.org/1999/xlink" width="260.323" height="36.31" viewBox="0 0 781.299 108.898" xmlns:v="https://vecta.io/nano"><g fill="none" fill-rule="evenodd" stroke="#000"><path d="M0 104.305h781.3M0 78.793h781.3M0 53.282h781.3M0 27.77h781.3M0 2.258h781.3" stroke-linecap="butt" stroke-width="2.392" stroke-linejoin="bevel"/><g fill="#000" stroke="none"><use xlink:href="#B"/><use xlink:href="#B" x="151.476" y="-25.511"/><use xlink:href="#B" x="303.749" y="-51.023"/><use xlink:href="#B" x="455.226"/><use xlink:href="#B" x="455.226" y="-25.511"/><use xlink:href="#B" x="455.226" y="-51.023"/></g></g><defs ><path id="B" d="M131.546 91.753c0 9.797 12.756 12.552 21.838 12.552h.5c8.572-.102 21.124-2.857 21.124-12.756 0-8.572-12.858-12.654-21.532-12.654-9.082 0-21.94 4.082-21.94 12.858zm13.266-8.062c1.53-1.53 4.184-2.347 6.837-2.347 2.143 0 4.286.5 6.02 1.735 3.266 2.347 5.817 8.368 5.817 12.756 0 1.123-.102 2.143-.5 2.96-1.123 2.245-5.204 3.878-8.98 3.878-1.633 0-3.266-.306-4.5-1.02-3.674-2.04-6.837-7.347-6.837-12.144 0-2.143.612-4.184 2.143-5.817z"/></defs></svg>