<svg xmlns="http://www.w3.org/2000/svg" xmlns:xlink="http://www.w3.org/1999/xlink" width="491.161" height="43.979" viewBox="0 0 1474.104 131.9" xmlns:v="https://vecta.io/nano"><g fill="none" fill-rule="evenodd" stroke="#000"><path d="M0 115.763h1474.104M0 90.25h1474.104M0 64.74h1474.104M0 39.228h1474.104M0 13.716h1474.104" stroke-linecap="butt" stroke-width="2.392" stroke-linejoin="bevel"/><g fill="#000" stroke="none"><use xlink:href="#B"/><use xlink:href="#B" x="145.098" y="-12.757"/><use xlink:href="#B" x="289.399" y="-25.511"/><use xlink:href="#B" x="434.498" y="-38.267"/><use xlink:href="#B" x="578.799" y="-51.023"/><use xlink:href="#B" x="723.897" y="-63.779"/><use xlink:href="#B" x="868.198" y="-76.535"/><use xlink:href="#B" x="1013.297" y="-89.291"/><use xlink:href="#B" x="1158.395" y="-102.047"/></g></g><defs ><path id="B" d="M128.357 115.967c0 9.797 12.756 12.552 21.838 12.552h.5c8.572-.102 21.124-2.857 21.124-12.756 0-8.572-12.858-12.654-21.532-12.654-9.082 0-21.94 4.082-21.94 12.858zm13.266-8.062c1.53-1.53 4.184-2.347 6.837-2.347 2.143 0 4.286.5 6.02 1.735 3.266 2.347 5.817 8.368 5.817 12.756 0 1.123-.102 2.143-.5 2.96-1.123 2.245-5.204 3.878-8.98 3.878-1.633 0-3.266-.306-4.5-1.02-3.674-2.04-6.837-7.347-6.837-12.144 0-2.143.612-4.184 2.143-5.817z"/></defs></svg>